<?xml version="1.0" encoding="UTF-8" standalone="no"?>
<svg
   xmlns:dc="http://purl.org/dc/elements/1.1/"
   xmlns:cc="http://creativecommons.org/ns#"
   xmlns:rdf="http://www.w3.org/1999/02/22-rdf-syntax-ns#"
   xmlns:svg="http://www.w3.org/2000/svg"
   xmlns="http://www.w3.org/2000/svg"
   xmlns:sodipodi="http://sodipodi.sourceforge.net/DTD/sodipodi-0.dtd"
   xmlns:inkscape="http://www.inkscape.org/namespaces/inkscape"
   sodipodi:docname="koe.svg"
   inkscape:version="1.0 (4035a4fb49, 2020-05-01)"
   id="svg8"
   version="1.1"
   viewBox="0 0 210 209"
   height="209mm"
   width="210mm">
  <defs
     id="defs2">
    <clipPath
       id="clipPath26"
       clipPathUnits="userSpaceOnUse">
      <rect
         y="55.072205"
         x="83.392151"
         height="18.514898"
         width="17.835613"
         id="rect28"
         style="fill:#ff2ad4;stroke-width:0.264583" />
    </clipPath>
  </defs>
  <sodipodi:namedview
     inkscape:window-maximized="1"
     inkscape:window-y="28"
     inkscape:window-x="1440"
     inkscape:window-height="1384"
     inkscape:window-width="2560"
     inkscape:snap-grids="false"
     showgrid="true"
     inkscape:document-rotation="0"
     inkscape:current-layer="layer1"
     inkscape:document-units="mm"
     inkscape:cy="466.80539"
     inkscape:cx="306.79348"
     inkscape:zoom="0.98994949"
     inkscape:pageshadow="2"
     inkscape:pageopacity="0.0"
     borderopacity="1.0"
     bordercolor="#666666"
     pagecolor="#ffffff"
     id="base">
    <inkscape:grid
       id="grid881"
       type="xygrid" />
  </sodipodi:namedview>
  <metadata
     id="metadata5">
    <rdf:RDF>
      <cc:Work
         rdf:about="">
        <dc:format>image/svg+xml</dc:format>
        <dc:type
           rdf:resource="http://purl.org/dc/dcmitype/StillImage" />
        <dc:title></dc:title>
      </cc:Work>
    </rdf:RDF>
  </metadata>
  <g
     id="layer1"
     inkscape:groupmode="layer"
     inkscape:label="Layer 1">
    <g
       transform="matrix(0.9910285,0,0,0.9910285,0.87203796,0.55337333)"
       id="g922">
      <path
         style="fill:#a9cbe8;fill-opacity:1;stroke:none;stroke-width:0.143013px;stroke-linecap:butt;stroke-linejoin:miter;stroke-opacity:1"
         d="M 39.167498,0.72380423 C 26.168316,1.2442951 8.0983921,7.7908077 9.3869493,14.254017 c 4.3968997,3.030109 8.7670577,5.75432 9.9420547,9.222899 -0.654801,1.797549 -3.919152,0.0055 -4.919596,1.38397 -1.768819,2.437754 1.400273,9.596537 1.400273,9.596537 l -3.644896,4.502824 c 0,0 -6.086092,-1.051113 -7.2641908,-1.100077 -4.21306512,3.813106 -4.86884875,10.599923 -4.12762838,13.253889 1.37604928,1.189727 3.03894798,1.781158 4.70571708,2.16304 0.2029705,1.192304 -2.8880058,5.482011 -2.8880058,5.482011 l 10.4347489,9.378583 c 0,0 4.679591,-2.893963 5.886163,-5.375173 0.227871,1.874524 1.262281,4.790472 3.276931,5.446283 3.437972,-0.246764 8.147433,-2.674265 11.620302,-4.909294 C 35.119949,60.240884 30.281485,53.96 30.281485,53.96 l 3.481397,-4.280994 c 0,0 4.515733,2.551824 7.215079,2.072981 2.045974,-2.256455 2.531622,-4.127287 4.882552,-8.110249 4.213042,3.35128 12.201445,7.953964 18.664685,9.246378 6.197976,-5.357242 4.132691,-21.754299 3.901938,-27.177304 -3.218573,9.639768 -6.418291,13.153702 -8.428087,14.833846 -2.914009,0.344841 -7.816956,-4.147908 -10.129196,-5.392485 0.517998,-2.207072 3.025492,-2.708253 4.796972,-3.678281 1.143037,-1.48751 1.567417,-3.035491 1.727059,-4.566688 -3.177962,-1.08506 -4.574908,-1.120896 -7.044862,-0.648588 -1.902519,1.54985 -3.353913,1.953982 -5.299501,2.251075 l -2.00325,-5.058331 -3.797525,-0.689404 c -1.230515,-2.106706 -0.601607,-3.825043 0.548078,-6.532264 -0.968852,-2.385941 -1.998515,-5.046527 -3.38015,-6.6523846 -2.512433,1.3670866 -3.867646,2.8509196 -5.637853,4.8829316 0.923559,2.233378 1.233917,3.294818 0.735835,5.867119 -2.668748,-0.340599 -9.78944,-4.087525 -9.446155,-8.255062 C 21.631293,5.2400045 34.705959,4.4231352 39.167498,0.72380423 Z"
         id="path30"
         sodipodi:nodetypes="ccccccccccccccccccccccccccccccccccc" />
      <path
         style="fill:#ececec;fill-opacity:0.964595;stroke:none;stroke-width:0.143013px;stroke-linecap:butt;stroke-linejoin:miter;stroke-opacity:1"
         d="M 39.250349,70.989926 C 26.251167,71.510417 8.1812448,78.056929 9.469801,84.520139 c 4.396899,3.030108 8.767056,5.754319 9.942053,9.222899 -0.6548,1.79755 -3.919151,0.0055 -4.919595,1.383969 -1.76882,2.437754 1.400273,9.596533 1.400273,9.596533 l -3.644895,4.50282 c 0,0 -6.0860889,-1.05111 -7.2641899,-1.10008 -4.21306363,3.8131 -4.86884726,10.59989 -4.12762699,13.25384 1.37604919,1.18973 3.03894789,1.78116 4.70571569,2.16305 0.2029706,1.19229 -2.8880044,5.48201 -2.8880044,5.48201 l 10.4347456,9.37857 c 0,0 4.679591,-2.89396 5.886161,-5.37517 0.227873,1.87453 1.262282,4.79047 3.276932,5.44628 3.437973,-0.24676 8.147434,-2.67425 11.620302,-4.90928 1.311128,-3.05864 -3.527336,-9.33951 -3.527336,-9.33951 l 3.481396,-4.281 c 0,0 4.515737,2.55183 7.215084,2.07298 2.045966,-2.25645 2.531612,-4.12727 4.88255,-8.11021 4.213033,3.35127 12.201437,7.95393 18.664679,9.24634 6.19799,-5.35722 4.132691,-21.75425 3.901938,-27.177246 -3.218565,9.639756 -6.418294,13.153686 -8.428085,14.833826 -2.914014,0.34484 -7.81695,-4.14791 -10.129199,-5.39248 0.518004,-2.20706 3.0255,-2.70825 4.796979,-3.67828 1.143031,-1.4875 1.567407,-3.035478 1.727051,-4.566674 -3.177955,-1.08506 -4.574901,-1.120896 -7.044859,-0.648589 -1.90252,1.54985 -3.353906,1.953982 -5.299503,2.251076 l -2.003248,-5.058332 -3.79753,-0.689404 c -1.230509,-2.106706 -0.601604,-3.825042 0.548082,-6.532264 -0.968851,-2.385941 -1.998511,-5.046527 -3.380146,-6.652384 -2.512433,1.367086 -3.867646,2.850919 -5.637853,4.882932 0.923559,2.233378 1.233916,3.294817 0.735833,5.867119 -2.668747,-0.3406 -9.789439,-4.087526 -9.446153,-8.255062 0.562792,-6.832292 13.637457,-7.649161 18.098997,-11.348492 z"
         id="path857"
         sodipodi:nodetypes="ccccccccccccccccccccccccccccccccccc" />
      <path
         sodipodi:nodetypes="ccccccccccccccccccccccccccccccccccc"
         id="path861"
         d="m 39.228661,141.47802 c -12.999183,0.5205 -31.069105,7.06701 -29.7805478,13.53022 4.3968978,3.0301 8.7670558,5.75431 9.9420528,9.22289 -0.654801,1.79755 -3.919152,0.005 -4.919596,1.38398 -1.768819,2.43775 1.400273,9.59654 1.400273,9.59654 l -3.644895,4.50282 c 0,0 -6.0860901,-1.05111 -7.2641906,-1.10008 -4.21306369,3.81309 -4.86884732,10.59991 -4.12762705,13.25388 1.37604915,1.18972 3.03894795,1.78115 4.70571575,2.16303 0.2029706,1.19231 -2.8880045,5.48202 -2.8880045,5.48202 l 10.4347464,9.37858 c 0,0 4.679591,-2.89396 5.886162,-5.37518 0.227872,1.87453 1.262282,4.79048 3.276931,5.44629 3.437973,-0.24677 8.147434,-2.67426 11.620303,-4.90929 1.311127,-3.05863 -3.527337,-9.33951 -3.527337,-9.33951 l 3.481397,-4.281 c 0,0 4.515736,2.55183 7.215084,2.07298 2.045965,-2.25645 2.531612,-4.12728 4.882549,-8.11025 4.213033,3.35128 12.201437,7.95397 18.66468,9.24638 6.197989,-5.35724 4.13269,-21.75428 3.901938,-27.17729 -3.218566,9.63977 -6.418295,13.1537 -8.428085,14.83384 -2.914015,0.34484 -7.816951,-4.14791 -10.129199,-5.39248 0.518003,-2.20707 3.025499,-2.70825 4.796978,-3.67828 1.143031,-1.48752 1.567408,-3.03549 1.727051,-4.56669 -3.177954,-1.08506 -4.5749,-1.12089 -7.044859,-0.64859 -1.902519,1.54985 -3.353906,1.95397 -5.299502,2.25108 l -2.003248,-5.05833 -3.797529,-0.6894 c -1.230509,-2.10671 -0.601606,-3.82504 0.54808,-6.53228 -0.968851,-2.38593 -1.998511,-5.04652 -3.380146,-6.65238 -2.512433,1.36709 -3.867646,2.85093 -5.637853,4.88294 0.923559,2.23338 1.233917,3.29482 0.735835,5.86712 -2.668748,-0.34061 -9.78944,-4.08752 -9.446155,-8.25507 0.562792,-6.83229 13.637458,-7.64916 18.098998,-11.34849 z"
         style="fill:#ececec;fill-opacity:0.964595;stroke:none;stroke-width:0.143013px;stroke-linecap:butt;stroke-linejoin:miter;stroke-opacity:1" />
      <path
         sodipodi:nodetypes="ccccccccccccccccccccccccccccccccccc"
         id="path883"
         d="M 109.682,0.72380423 C 96.682829,1.2442951 78.612903,7.7908077 79.90146,14.254017 c 4.396901,3.030109 8.767059,5.75432 9.942055,9.222899 -0.654801,1.797549 -3.919151,0.0055 -4.919595,1.38397 -1.768819,2.437754 1.400273,9.596537 1.400273,9.596537 l -3.644897,4.502824 c 0,0 -6.086092,-1.051113 -7.264191,-1.100077 -4.213065,3.813106 -4.868848,10.599923 -4.127628,13.253889 1.376049,1.189727 3.038947,1.781158 4.705717,2.16304 0.202971,1.192304 -2.888006,5.482011 -2.888006,5.482011 l 10.434751,9.378583 c 0,0 4.679589,-2.893963 5.886161,-5.375173 0.227873,1.874524 1.262281,4.790472 3.276932,5.446283 3.437973,-0.246764 8.147418,-2.674265 11.620288,-4.909294 C 105.63445,60.240884 100.79599,53.96 100.79599,53.96 l 3.48139,-4.280994 c 0,0 4.51573,2.551824 7.21508,2.072981 2.04597,-2.256455 2.53163,-4.127287 4.88255,-8.110249 4.21305,3.35128 12.20145,7.953964 18.6647,9.246378 6.19797,-5.357242 4.13268,-21.754299 3.90193,-27.177304 -3.21857,9.639768 -6.41829,13.153702 -8.42808,14.833846 -2.91402,0.344841 -7.81697,-4.147908 -10.12921,-5.392485 0.51799,-2.207072 3.0255,-2.708253 4.79698,-3.678281 1.14303,-1.48751 1.56742,-3.035491 1.72706,-4.566688 -3.17797,-1.08506 -4.57492,-1.120896 -7.04486,-0.648588 -1.90253,1.54985 -3.35392,1.953982 -5.29951,2.251075 l -2.00325,-5.058331 -3.79752,-0.689404 c -1.23052,-2.106706 -0.60161,-3.825043 0.54808,-6.532264 -0.96886,-2.385941 -1.99852,-5.046527 -3.38016,-6.6523846 -2.51242,1.3670866 -3.86764,2.8509196 -5.63784,4.8829316 0.92356,2.233378 1.23391,3.294818 0.73582,5.867119 C 98.36042,19.986759 91.239728,16.239833 91.583012,12.072296 92.145805,5.2400045 105.22045,4.4231352 109.682,0.72380423 Z"
         style="fill:#ececec;fill-opacity:0.964595;stroke:none;stroke-width:0.143013px;stroke-linecap:butt;stroke-linejoin:miter;stroke-opacity:1" />
      <path
         sodipodi:nodetypes="ccccccccccccccccccccccccccccccccccc"
         id="path885"
         d="m 109.76485,70.989926 c -12.999172,0.520491 -31.069094,7.067003 -29.780537,13.530213 4.396898,3.030108 8.767056,5.754319 9.942053,9.222899 -0.654801,1.79755 -3.919151,0.0055 -4.919596,1.383969 -1.768819,2.437754 1.400273,9.596533 1.400273,9.596533 l -3.644895,4.50282 c 0,0 -6.08609,-1.05111 -7.264189,-1.10008 -4.213064,3.8131 -4.868848,10.59989 -4.127628,13.25384 1.37605,1.18973 3.038948,1.78116 4.705716,2.16305 0.20297,1.19229 -2.888004,5.48201 -2.888004,5.48201 l 10.434745,9.37857 c 0,0 4.679591,-2.89396 5.886163,-5.37517 0.227871,1.87453 1.262281,4.79047 3.276931,5.44628 3.437973,-0.24676 8.147428,-2.67425 11.620288,-4.90928 1.31112,-3.05864 -3.52733,-9.33951 -3.52733,-9.33951 l 3.48139,-4.281 c 0,0 4.51574,2.55183 7.21509,2.07298 2.04596,-2.25645 2.53161,-4.12727 4.88254,-8.11021 4.21304,3.35127 12.20144,7.95393 18.66469,9.24634 6.19798,-5.35722 4.13269,-21.75425 3.90194,-27.177246 -3.21857,9.639756 -6.4183,13.153686 -8.42809,14.833826 -2.91402,0.34484 -7.81695,-4.14791 -10.1292,-5.39248 0.518,-2.20706 3.0255,-2.70825 4.79698,-3.67828 1.14303,-1.4875 1.56741,-3.035478 1.72705,-4.566674 -3.17795,-1.08506 -4.57489,-1.120896 -7.04486,-0.648589 -1.90252,1.54985 -3.35391,1.953982 -5.29951,2.251076 l -2.00324,-5.058332 -3.79754,-0.689404 c -1.2305,-2.106706 -0.60159,-3.825042 0.54809,-6.532264 -0.96885,-2.385941 -1.99851,-5.046527 -3.38014,-6.652384 -2.51244,1.367086 -3.86765,2.850919 -5.63786,4.882932 0.92356,2.233378 1.23391,3.294817 0.73584,5.867119 -2.66874,-0.3406 -9.789432,-4.087526 -9.446147,-8.255062 0.562792,-6.832292 13.637447,-7.649161 18.098987,-11.348492 z"
         style="fill:#a9cbe8;fill-opacity:1;stroke:none;stroke-width:0.143013px;stroke-linecap:butt;stroke-linejoin:miter;stroke-opacity:1" />
      <path
         style="fill:#ececec;fill-opacity:0.964595;stroke:none;stroke-width:0.143013px;stroke-linecap:butt;stroke-linejoin:miter;stroke-opacity:1"
         d="m 109.74316,141.47802 c -12.999169,0.5205 -31.069094,7.06701 -29.780536,13.53022 4.396899,3.0301 8.767056,5.75431 9.942053,9.22289 -0.654801,1.79755 -3.919151,0.005 -4.919596,1.38398 -1.768818,2.43775 1.400274,9.59654 1.400274,9.59654 l -3.644896,4.50282 c 0,0 -6.08609,-1.05111 -7.26419,-1.10008 -4.213064,3.81309 -4.868848,10.59991 -4.127628,13.25388 1.37605,1.18972 3.038948,1.78115 4.705716,2.16303 0.202971,1.19231 -2.888004,5.48202 -2.888004,5.48202 l 10.434748,9.37858 c 0,0 4.679589,-2.89396 5.886161,-5.37518 0.227873,1.87453 1.262281,4.79048 3.276932,5.44629 3.437973,-0.24677 8.147426,-2.67426 11.620296,-4.90929 1.31112,-3.05863 -3.52734,-9.33951 -3.52734,-9.33951 l 3.48139,-4.281 c 0,0 4.51574,2.55183 7.21508,2.07298 2.04597,-2.25645 2.53161,-4.12728 4.88256,-8.11025 4.21304,3.35128 12.20144,7.95397 18.66469,9.24638 6.19798,-5.35724 4.13268,-21.75428 3.90193,-27.17729 -3.21857,9.63977 -6.41829,13.1537 -8.42808,14.83384 -2.91402,0.34484 -7.81696,-4.14791 -10.12921,-5.39248 0.518,-2.20707 3.02551,-2.70825 4.79698,-3.67828 1.14303,-1.48752 1.56741,-3.03549 1.72706,-4.56669 -3.17795,-1.08506 -4.57491,-1.12089 -7.04487,-0.64859 -1.90252,1.54985 -3.3539,1.95397 -5.2995,2.25108 l -2.00325,-5.05833 -3.79753,-0.6894 c -1.23051,-2.10671 -0.60161,-3.82504 0.54809,-6.53228 -0.96886,-2.38593 -1.99851,-5.04652 -3.38016,-6.65238 -2.51243,1.36709 -3.86764,2.85093 -5.63784,4.88294 0.92356,2.23338 1.23391,3.29482 0.73583,5.86712 -2.668739,-0.34061 -9.78943,-4.08752 -9.446146,-8.25507 0.562792,-6.83229 13.637446,-7.64916 18.098986,-11.34849 z"
         id="path887"
         sodipodi:nodetypes="ccccccccccccccccccccccccccccccccccc" />
      <path
         style="fill:#ececec;fill-opacity:0.964595;stroke:none;stroke-width:0.143013px;stroke-linecap:butt;stroke-linejoin:miter;stroke-opacity:1"
         d="M 180.19332,0.72380423 C 167.19414,1.2442951 149.12421,7.7908077 150.41276,14.254017 c 4.39691,3.030109 8.76706,5.75432 9.94206,9.222899 -0.6548,1.797549 -3.91915,0.0055 -4.91959,1.38397 -1.76882,2.437754 1.40028,9.596537 1.40028,9.596537 l -3.64491,4.502824 c 0,0 -6.08609,-1.051113 -7.26419,-1.100077 -4.21306,3.813106 -4.86884,10.599923 -4.12762,13.253889 1.37605,1.189727 3.03894,1.781158 4.70572,2.16304 0.20296,1.192304 -2.88802,5.482011 -2.88802,5.482011 l 10.43475,9.378583 c 0,0 4.67959,-2.893963 5.88617,-5.375173 0.22788,1.874524 1.26229,4.790472 3.27693,5.446283 3.43797,-0.246764 8.14743,-2.674265 11.62031,-4.909294 C 176.14578,60.240884 171.3073,53.96 171.3073,53.96 l 3.48141,-4.280994 c 0,0 4.51572,2.551824 7.21507,2.072981 2.04598,-2.256455 2.53162,-4.127287 4.88255,-8.110249 4.21304,3.35128 12.20144,7.953964 18.66469,9.246378 6.19798,-5.357242 4.13269,-21.754299 3.90194,-27.177304 -3.21858,9.639768 -6.4183,13.153702 -8.42809,14.833846 -2.91401,0.344841 -7.81696,-4.147908 -10.12919,-5.392485 0.51799,-2.207072 3.02548,-2.708253 4.79696,-3.678281 1.14305,-1.48751 1.56742,-3.035491 1.72706,-4.566688 -3.17797,-1.08506 -4.57491,-1.120896 -7.04486,-0.648588 -1.90251,1.54985 -3.35392,1.953982 -5.2995,2.251075 l -2.00324,-5.058331 -3.79753,-0.689404 c -1.23052,-2.106706 -0.60161,-3.825043 0.54807,-6.532264 -0.96884,-2.385941 -1.99851,-5.046527 -3.38015,-6.6523846 -2.51243,1.3670866 -3.86764,2.8509196 -5.63784,4.8829316 0.92355,2.233378 1.23392,3.294818 0.73583,5.867119 -2.66876,-0.340599 -9.78944,-4.087525 -9.44615,-8.255062 0.56278,-6.8322915 13.63745,-7.6491608 18.09899,-11.34849177 z"
         id="path889"
         sodipodi:nodetypes="ccccccccccccccccccccccccccccccccccc" />
      <path
         style="fill:#ececec;fill-opacity:0.964595;stroke:none;stroke-width:0.143013px;stroke-linecap:butt;stroke-linejoin:miter;stroke-opacity:1"
         d="m 180.27617,70.989926 c -12.99918,0.520491 -31.06911,7.067003 -29.78055,13.530213 4.3969,3.030108 8.76705,5.754319 9.94206,9.222899 -0.65481,1.79755 -3.91915,0.0055 -4.91961,1.383969 -1.76881,2.437754 1.40028,9.596533 1.40028,9.596533 l -3.6449,4.50282 c 0,0 -6.08608,-1.05111 -7.26418,-1.10008 -4.21307,3.8131 -4.86885,10.59989 -4.12762,13.25384 1.37603,1.18973 3.03894,1.78116 4.7057,2.16305 0.20299,1.19229 -2.888,5.48201 -2.888,5.48201 l 10.43475,9.37857 c 0,0 4.67958,-2.89396 5.88615,-5.37517 0.22788,1.87453 1.26229,4.79047 3.27694,5.44628 3.43798,-0.24676 8.14744,-2.67425 11.6203,-4.90928 1.31113,-3.05864 -3.52734,-9.33951 -3.52734,-9.33951 l 3.4814,-4.281 c 0,0 4.51574,2.55183 7.21509,2.07298 2.04597,-2.25645 2.53161,-4.12727 4.88255,-8.11021 4.21303,3.35127 12.20143,7.95393 18.66468,9.24634 6.19798,-5.35722 4.13269,-21.75425 3.90193,-27.177246 -3.21856,9.639756 -6.41829,13.153686 -8.42808,14.833826 -2.91401,0.34484 -7.81695,-4.14791 -10.12919,-5.39248 0.518,-2.20706 3.02549,-2.70825 4.79697,-3.67828 1.14304,-1.4875 1.56741,-3.035478 1.72705,-4.566674 -3.17795,-1.08506 -4.5749,-1.120896 -7.04486,-0.648589 -1.90251,1.54985 -3.35391,1.953982 -5.2995,2.251076 l -2.00325,-5.058332 -3.79753,-0.689404 c -1.23051,-2.106706 -0.60161,-3.825042 0.54808,-6.532264 -0.96885,-2.385941 -1.99851,-5.046527 -3.38014,-6.652384 -2.51244,1.367086 -3.86765,2.850919 -5.63786,4.882932 0.92357,2.233378 1.23392,3.294817 0.73584,5.867119 -2.66875,-0.3406 -9.78944,-4.087526 -9.44616,-8.255062 0.56279,-6.832292 13.63746,-7.649161 18.099,-11.348492 z"
         id="path891"
         sodipodi:nodetypes="ccccccccccccccccccccccccccccccccccc" />
      <path
         sodipodi:nodetypes="ccccccccccccccccccccccccccccccccccc"
         id="path893"
         d="m 180.25449,141.47802 c -12.99919,0.5205 -31.06912,7.06701 -29.78056,13.53022 4.39689,3.0301 8.76705,5.75431 9.94206,9.22289 -0.65481,1.79755 -3.91915,0.005 -4.9196,1.38398 -1.76882,2.43775 1.40028,9.59654 1.40028,9.59654 l -3.64491,4.50282 c 0,0 -6.08608,-1.05111 -7.26418,-1.10008 -4.21307,3.81309 -4.86885,10.59991 -4.12763,13.25388 1.37605,1.18972 3.03895,1.78115 4.70571,2.16303 0.20297,1.19231 -2.888,5.48202 -2.888,5.48202 l 10.43474,9.37858 c 0,0 4.67959,-2.89396 5.88616,-5.37518 0.22788,1.87453 1.2623,4.79048 3.27694,5.44629 3.43798,-0.24677 8.14744,-2.67426 11.6203,-4.90929 1.31113,-3.05863 -3.52734,-9.33951 -3.52734,-9.33951 l 3.48141,-4.281 c 0,0 4.51573,2.55183 7.21508,2.07298 2.04597,-2.25645 2.53161,-4.12728 4.88255,-8.11025 4.21303,3.35128 12.20143,7.95397 18.66468,9.24638 6.19798,-5.35724 4.13269,-21.75428 3.90194,-27.17729 -3.21857,9.63977 -6.4183,13.1537 -8.42809,14.83384 -2.91402,0.34484 -7.81695,-4.14791 -10.1292,-5.39248 0.51801,-2.20707 3.0255,-2.70825 4.79698,-3.67828 1.14303,-1.48752 1.56741,-3.03549 1.72705,-4.56669 -3.17795,-1.08506 -4.57489,-1.12089 -7.04486,-0.64859 -1.90251,1.54985 -3.35391,1.95397 -5.2995,2.25108 l -2.00325,-5.05833 -3.79753,-0.6894 c -1.23051,-2.10671 -0.6016,-3.82504 0.54808,-6.53228 -0.96885,-2.38593 -1.99851,-5.04652 -3.38015,-6.65238 -2.51243,1.36709 -3.86763,2.85093 -5.63784,4.88294 0.92355,2.23338 1.23391,3.29482 0.73582,5.86712 -2.66874,-0.34061 -9.78944,-4.08752 -9.44614,-8.25507 0.56278,-6.83229 13.63745,-7.64916 18.099,-11.34849 z"
         style="fill:#a9cbe8;fill-opacity:1;stroke:none;stroke-width:0.143013px;stroke-linecap:butt;stroke-linejoin:miter;stroke-opacity:1" />
    </g>
  </g>
</svg>
