<?xml version="1.0" encoding="UTF-8" standalone="no"?>
<svg
   xmlns:dc="http://purl.org/dc/elements/1.1/"
   xmlns:cc="http://creativecommons.org/ns#"
   xmlns:rdf="http://www.w3.org/1999/02/22-rdf-syntax-ns#"
   xmlns:svg="http://www.w3.org/2000/svg"
   xmlns="http://www.w3.org/2000/svg"
   id="svg8"
   version="1.1"
   viewBox="0 0 210 209"
   height="209mm"
   width="210mm">
  <defs
     id="defs2">
    <clipPath
       id="clipPath26"
       clipPathUnits="userSpaceOnUse">
      <rect
         y="55.072205"
         x="83.392151"
         height="18.514898"
         width="17.835613"
         id="rect28"
         style="fill:#ff2ad4;stroke-width:0.264583" />
    </clipPath>
  </defs>
  <metadata
     id="metadata5">
    <rdf:RDF>
      <cc:Work
         rdf:about="">
        <dc:format>image/svg+xml</dc:format>
        <dc:type
           rdf:resource="http://purl.org/dc/dcmitype/StillImage" />
        <dc:title></dc:title>
      </cc:Work>
    </rdf:RDF>
  </metadata>
  <g
     id="layer1">
    <g
       transform="matrix(0.9910285,0,0,0.9910285,0.87203796,0.55337333)"
       id="g922">
      <path
         style="fill:#f2f2f2;fill-opacity:0.964595;stroke:none;stroke-width:0.439494px;stroke-linecap:butt;stroke-linejoin:miter;stroke-opacity:1"
         d="M 118.72281,1.1932881 C 78.774937,2.7928127 23.244094,22.910952 27.203947,42.77309 c 13.512179,9.311852 26.942121,17.683646 30.553022,28.342963 -2.01227,5.524062 -12.04397,0.0169 -15.11843,4.253089 -5.435774,7.491481 4.303212,29.491188 4.303212,29.491188 l -11.201202,13.83766 c 0,0 -18.70321,-3.23018 -22.323639,-3.38065 -12.94718704,11.71808 -14.9624697,32.57471 -12.68462071,40.73063 4.22875001,3.65616 9.33898971,5.47369 14.46118471,6.64725 0.623718,3.66408 -8.8751967,16.84681 -8.8751967,16.84681 l 32.0671117,28.8214 c 0,0 14.380884,-8.89346 18.088835,-16.51849 0.700299,5.76062 3.879153,14.72164 10.070359,16.73702 10.565252,-0.75833 25.03793,-8.21831 35.710457,-15.08679 4.02925,-9.39948 -10.839919,-28.70132 -10.839919,-28.70132 L 102.11386,151.6379 c 0,0 13.8773,7.84203 22.17269,6.37049 6.28752,-6.93433 7.77994,-12.6836 15.0046,-24.92367 12.94713,10.29885 37.49634,24.44339 57.35861,28.41512 19.04706,-16.46339 12.7002,-66.853305 11.99108,-83.518784 -9.89104,29.624044 -19.72413,40.422744 -25.90043,45.586004 -8.95507,1.05973 -24.02236,-12.74697 -31.12809,-16.57169 1.59184,-6.78256 9.29762,-8.322747 14.74157,-11.303748 3.51272,-4.571278 4.81685,-9.328391 5.30744,-14.033924 -9.76624,-3.334506 -14.05919,-3.444634 -21.64961,-1.993181 -5.84662,4.762856 -10.30696,6.004797 -16.28593,6.917796 l -6.15618,-15.544796 -11.67022,-2.118613 c -3.78152,-6.474135 -1.84881,-11.754769 1.68428,-20.074351 -2.97735,-7.332254 -6.14163,-15.508522 -10.38756,-20.443495 -7.720965,4.201204 -11.885671,8.761183 -17.325687,15.005775 2.838169,6.863411 3.79197,10.125331 2.261285,18.030289 C 83.930321,60.390425 62.047704,48.875717 63.102671,36.068427 64.832155,15.072058 105.01202,12.561731 118.72281,1.1932881 Z"
         id="path889" />
    </g>
  </g>
</svg>
